<svg viewBox="0 0 200 200" xmlns="http://www.w3.org/2000/svg">
  <defs>
    <linearGradient id="grad4" x1="0%" y1="0%" x2="100%" y2="0%">
      <stop offset="0%" style="stop-color:#3B82F6;stop-opacity:1" />
      <stop offset="50%" style="stop-color:#10B981;stop-opacity:1" />
      <stop offset="100%" style="stop-color:#F59E0B;stop-opacity:1" />
    </linearGradient>
  </defs>
  <circle cx="100" cy="100" r="85" fill="none" stroke="#3B82F6" stroke-width="2" opacity="0.2"/>
  <circle cx="100" cy="100" r="70" fill="none" stroke="#10B981" stroke-width="2" opacity="0.3"/>
  <circle cx="100" cy="100" r="55" fill="none" stroke="#F59E0B" stroke-width="2" opacity="0.4"/>
  <circle cx="100" cy="100" r="40" fill="url(#grad4)" opacity="0.2"/>
  <path d="M 30 100 L 50 100 L 60 70 L 70 130 L 80 100 L 100 100 L 110 85 L 120 115 L 130 100 L 150 100 L 170 100" fill="none" stroke="url(#grad4)" stroke-width="4" stroke-linecap="round"/>
  <circle cx="60" cy="70" r="4" fill="#3B82F6"/>
  <circle cx="70" cy="130" r="4" fill="#10B981"/>
  <circle cx="110" cy="85" r="4" fill="#F59E0B"/>
  <circle cx="120" cy="115" r="4" fill="#10B981"/>
  <circle cx="100" cy="100" r="15" fill="none" stroke="#3B82F6" stroke-width="3"/>
  <line x1="100" y1="100" x2="100" y2="90" stroke="#3B82F6" stroke-width="2" stroke-linecap="round"/>
  <line x1="100" y1="100" x2="107" y2="100" stroke="#10B981" stroke-width="2" stroke-linecap="round"/>
  <circle cx="100" cy="100" r="3" fill="#F59E0B"/>
</svg>
